<svg xmlns="http://www.w3.org/2000/svg" data-name="Layer 1" viewBox="0 0 150 187.5" x="0px" y="0px"><defs><style>.cls-1{fill:#010101;}</style></defs><title>icons</title><path class="cls-1" d="M36.47,79.75a29.89,29.89,0,0,1-1.06-4.53c-.15-3.63-.21-7.28,0-10.9A37.34,37.34,0,0,1,43.52,43,28.83,28.83,0,0,1,59.24,32.94a76.39,76.39,0,0,1,9.39-1.43c1.49-.21,3-.44,4.48-.55A38.76,38.76,0,0,1,92,34.22c7.31,3.24,14.41,6.66,20,12.6,3.24,3.44,5.15,7.51,6.92,11.83,2.48,6.08,1.79,12.16,1.41,18.41-.32,5.29-2.42,9.93-4.19,14.66-2.23,6-6.75,10.41-11.87,14.06A38.69,38.69,0,0,1,78.45,113a43.9,43.9,0,0,1-20.64-7c-7.17-4.54-13.64-9.68-17.93-17.07-1.56-2.69-2.29-5.88-3.4-9.11M50.61,96.39l1.18,1.18c2.58,2.57,3.52,2.38,5.22-.83,1.57-3,3.27-5.86,5-8.74.63-1.05,1.51-2,2.19-3,3.55-5.36,6.9-10.87,10.66-16.08,2.11-2.92,4.85-5.39,7.36-8,1.14-1.18,1.46-2.35-.39-2.74a19.08,19.08,0,0,0-6.67-.54c-6,.92-12.11,1.1-18.12,3-6.45,2-12,4.92-16.47,9.79-1.44,1.55-2.48,3.19-1.44,5.69,1.28,3.07,1.6,6.56,3,9.57a25.09,25.09,0,0,0,8.51,10.69m56-28.28c-2.37-2.26-4.88-3.61-8.34-2.26-3.75,1.47-5.1,3.82-3.6,7.65a1.61,1.61,0,0,1,0,.83c-1.06,5.75-1.86,11.56-3.28,17.22a38.22,38.22,0,0,1-7.71,15.65c-.46.54-.33,1.59-.47,2.41a12.62,12.62,0,0,0,2,.08c.95-.11,1.88-.36,2.82-.53a32.16,32.16,0,0,0,17.57-9.67c4.7-4.84,7.36-11,9.23-17.47.45-1.55,1-3.84.25-4.83-2.41-3.17-5.41-5.9-8.46-9.08M69.47,97.5c4.09,1.29,8.11,2.85,12.28,3.8,3.18.73,3.23-2.61,4.34-4.39s.56-2.79-1.56-3.32c-5.35-1.34-10.66-2.81-16-4.24C66.7,88.86,65.06,89,64,90.78s-.35,2.93,1,4a27.91,27.91,0,0,0,4.41,2.75M46.17,44.26c-4.7,6.34-6.67,13.72-8,21.32-.09.52.33,1.13.52,1.7a6.31,6.31,0,0,0,1.71-.65c2-1.51,3.93-3.06,5.81-4.69,1.09-.95,2.72-2,2.9-3.14.86-5.69,3.72-10.47,6.24-15.45.63-1.25,3-2.86,1.16-3.9s-3.12,1.41-3.93,3C49.74,48.24,47,54,44.19,59.79c-.34.69-1.22,1.12-1.85,1.67a7.18,7.18,0,0,1,.17-2.39c2.18-4.91,4.5-9.76,6.67-14.68a13.73,13.73,0,0,0,.59-3.17c-.72.53-1.45,1-2.15,1.61-.43.35-.79.77-1.46,1.44m36-8.87c-2.26-.55-4.53-1.58-6.78-1.56-4.37,0-8.74.59-13.1,1.06-.71.08-1.35.78-2,1.19a9.12,9.12,0,0,0,1.95.41C72.69,36.38,81.19,41,89.1,47.22a6.13,6.13,0,0,0,1.71.64A4.8,4.8,0,0,0,91.11,46c-.56-2-1.34-3.87-1.94-5.83-1.49-4.82-1.93-4.88-6.94-4.77m-3.33,73.76c.71-1.08,1.44-2.16,2.14-3.26.31-.49.56-1,.84-1.53a8,8,0,0,0-1.9-.74c-5.81-.69-11.46-2-16.12-5.72-2.24-1.8-3.54-.62-4.57,1s-1.26,3.53,1,4.71A70.69,70.69,0,0,0,66.86,107c3.75,1.49,7.47,3.43,12,2.12M98,61.73c1.52-3.4-.88-9.84-4.29-10.74a7.44,7.44,0,0,0-7.4,2c-1.58,1.63-1.86,3.57-.7,5.86,2.71,5.38,7.72,8.34,12.4,2.89M81.11,90.29a30.46,30.46,0,0,0,5.67,1.53c.67.06,1.73-1.33,2.11-2.27.17-.42-.75-1.67-1.43-2-4.25-2-8.65-3.58-12.84-5.65-3.68-1.82-4-1.92-6,1.48-1,1.77-.63,3,1.42,3.58,3.51,1.06,7,2.21,11.05,3.31M75,78.64c4.14,2,8.34,4,12.39,6.16,1.54.84,2.64-.07,2.71-.87.12-1.55,0-4.07-.92-4.57C85.31,77.25,81,75.88,77.05,74c-2.36-1.14-2.81.72-3.6,1.89s-.88,2.42,1.55,2.8m5.82-27.45c.46-1.2,1-2.37,1.33-3.6.16-.57.14-1.6-.2-1.82-1.49-1-3.17-1.71-4.71-2.63-2.18-1.31-3.42-.47-4.41,1.59C71.52,47.51,70,50.19,68.67,53a7.5,7.5,0,0,0-.28,2.37c.93-.2,2.11-.13,2.74-.68a10.54,10.54,0,0,0,1.93-3c1.17-2.19,2.24-4.44,3.46-6.6.2-.35,1-.38,1.49-.55.08.51.35,1.09.2,1.52-.78,2.17-1.6,4.33-2.53,6.43-.71,1.59-.79,2.3,1.41,2.44,2.75.18,2.88-1.71,3.75-3.69M63.64,40.65l-.06-1.72c-.69.18-1.66.13-2,.57a54.66,54.66,0,0,0-9.92,18.23c-.1.3.77,1.26.83,1.23,2-1,4.33-1,5.29-3.93,1.56-4.74,3.9-9.23,5.91-14.38M67.53,49a43.06,43.06,0,0,0,2.7-5.24c.35-1-.07-2.19-.14-3.3-1.35.19-2.94-.86-3.8,1.38-1.69,4.37-3.75,8.59-5.54,12.92-.16.38.83,1.67.9,1.64,1.26-.53,2.87-.92,3.56-1.92,1-1.5,1.4-3.45,2.33-5.49m14.7,24.68a59.17,59.17,0,0,0,6.32,2.68c.78.24,1.88-.54,2.83-.85-.49-.8-.79-1.87-1.49-2.34a61.49,61.49,0,0,0-8-4.66,3.84,3.84,0,0,0-3.43.8c-.88.88-.82,2.29,1,2.77a10.51,10.51,0,0,1,2.76,1.6m27.45-23.57c-1.41-1.72-2.66-2.92-4.7-.45-.88,1.06-2.72,1.3-4.06,2A2.29,2.29,0,0,0,99.78,53c-.05.34.69,1.14,1.11,1.16a62.48,62.48,0,0,0,6.7,0c3.23-.18,3.69-1,2.09-4.14m1.11,17.75c.55-.3,1.58-.59,1.59-.91.12-3.11.11-6.23,0-9.34,0-.38-.58-.89-1-1.06-.23-.09-1,.42-1,.66,0,3.46.06,6.92.39,10.65M83.33,63.67c-1.28,1-1.13,2,.1,2.84,1.86,1.24,3.77,2.42,5.73,3.48.46.25,1.23-.08,1.86-.15-.07-.61.09-1.55-.25-1.78a61.5,61.5,0,0,0-7.45-4.39m33,.28-.78-2.45c-.26.23-.73.44-.75.69-.27,3-.59,5.91-.58,8.86,0,.64,1.29,1.27,2,1.91a8.09,8.09,0,0,0,.66-2.2,43.64,43.64,0,0,0-.52-6.81M102.74,57c-.28,1.73-.61,3.46-.76,5.2,0,.24,1,.9,1.36.77,1.61-.67,1.54-4.92-.59-6m4.16.28c-.37,1.78-.82,3.55-1.06,5.34a2.26,2.26,0,0,0,.82,1.54c.2.19,1.21-.11,1.21-.13a41.68,41.68,0,0,0-1-6.75M103.3,47l.87-1.35L99,44.26c0,.22-.12.59,0,.64A27.14,27.14,0,0,0,103.3,47M84.44,52a24.89,24.89,0,0,0,2.12-2.17c.28-.36.23-1,.33-1.47-.43-.08-1.15-.34-1.24-.2-.87,1.39-1.64,2.85-2.43,4.3A3.27,3.27,0,0,0,84.44,52m8.87-8.87c.75-.18,1.52-.34,2.25-.58.2-.06.31-.39.46-.59a9.14,9.14,0,0,0-2.28-.42C93.49,41.57,93.27,42.41,93.31,43.15Z"/><path class="cls-1" d="M112.45,29.84c3.56.67,7.11,5.36,6.63,8.48a5,5,0,0,1-.68,1.36,4,4,0,0,1-1-.71c-1.84-2.53-3.66-5.07-5.41-7.67C111.82,31,112.11,30.34,112.45,29.84Z"/><path class="cls-1" d="M35.91,100.83c-.17-1.78.72-2.31,1.63-1.31,2.2,2.41,4.12,5.07,6.11,7.66.19.24,0,.77,0,1.16-.63-.09-1.51,0-1.84-.32C39.77,105.78,37.86,103.42,35.91,100.83Z"/><path class="cls-1" d="M35.5,109c.27.27.41.39.53.53l2.09,2.67c-1.2-.28-2.74-.19-3.51-.92a34.62,34.62,0,0,1-4.48-5.54c-.33-.48,0-1.43,0-2.16a6.48,6.48,0,0,1,2,1.06C33.35,106,34.32,107.46,35.5,109Z"/><path class="cls-1" d="M124.09,32.61a20,20,0,0,1,.5,2.8c0,.36-.6.87-1,1-.25.08-.83-.36-1-.7-.9-1.55-1.75-3.13-2.52-4.74a4.73,4.73,0,0,1-.12-1.68c.62,0,1.45-.15,1.81.18A14.51,14.51,0,0,1,124.09,32.61Z"/><text x="0" y="165" fill="#000000" font-size="5px" font-weight="bold" font-family="'Helvetica Neue', Helvetica, Arial-Unicode, Arial, Sans-serif">Created by Lesley Hunt</text><text x="0" y="170" fill="#000000" font-size="5px" font-weight="bold" font-family="'Helvetica Neue', Helvetica, Arial-Unicode, Arial, Sans-serif">from the Noun Project</text></svg>