<?xml version="1.0" encoding="iso-8859-1"?>
<!-- Generator: Adobe Illustrator 18.0.0, SVG Export Plug-In . SVG Version: 6.00 Build 0)  -->
<!DOCTYPE svg PUBLIC "-//W3C//DTD SVG 1.1//EN" "http://www.w3.org/Graphics/SVG/1.1/DTD/svg11.dtd">
<svg version="1.1" id="Capa_1" xmlns="http://www.w3.org/2000/svg" xmlns:xlink="http://www.w3.org/1999/xlink" x="0px" y="0px"
	 viewBox="0 0 465.021 465.021" style="enable-background:new 0 0 465.021 465.021;" xml:space="preserve">
<g>
	<path d="M461.114,387.344c-9.997-3.029-20.066-5.843-30.194-8.45v-58.982l-0.342,0.307c0.221-1.34,0.342-2.714,0.342-4.116
		c0-9.516-5.268-18.111-13.746-22.431l-16.374-8.344v-11.51c0-6.337-3.635-11.78-9.487-14.204
		c-3.653-1.513-7.528-1.583-11.015-0.332l-29.195-29.194c1.436-0.003,2.852-0.591,3.88-1.619c1.021-1.02,1.61-2.44,1.61-3.88
		c0-1.45-0.59-2.87-1.61-3.89c-1.03-1.03-2.439-1.61-3.89-1.61s-2.87,0.58-3.891,1.61c-1.027,1.018-1.606,2.434-1.608,3.88
		l-3.991-3.991c1.396-0.002,2.802-0.541,3.88-1.609c2.14-2.15,2.14-5.63,0-7.78c-2.15-2.15-5.63-2.15-7.78,0
		c-1.073,1.068-1.609,2.472-1.611,3.878l-3.989-3.989c1.396-0.002,2.802-0.541,3.88-1.609c2.14-2.15,2.14-5.64,0-7.78
		c-2.15-2.15-5.63-2.15-7.78,0c-1.073,1.068-1.609,2.472-1.611,3.878l-1.756-1.756c-0.786-0.786-1.598-1.528-2.422-2.25
		c0.06,0.002,0.119,0.018,0.179,0.018c1.45,0,2.859-0.59,3.89-1.61c1.021-1.03,1.61-2.45,1.61-3.89c0-1.45-0.59-2.87-1.61-3.89
		c-1.03-1.03-2.439-1.61-3.89-1.61s-2.87,0.58-3.891,1.61c-1.02,1.02-1.609,2.44-1.609,3.89c0,0.543,0.107,1.073,0.265,1.586
		c-19.203-12.897-45.445-11.006-62.558,5.65v-40.386h1.5c3.037,0,5.5-2.462,5.5-5.5s-2.463-5.5-5.5-5.5h-1.5v-14.716h18.137
		c9.488,0,17.208-7.72,17.208-17.209c0-9.489-7.72-17.208-17.208-17.208h-17.597c1.878-3.238,2.959-6.994,2.959-10.999
		c0-12.13-9.869-21.999-21.999-21.999s-21.999,9.869-21.999,21.999c0,4.005,1.081,7.761,2.959,10.999h-17.597
		c-9.488,0-17.208,7.72-17.208,17.208c0,9.489,7.72,17.209,17.208,17.209h18.133v14.716H216.3c-3.037,0-5.5,2.462-5.5,5.5
		s2.463,5.5,5.5,5.5h1.496v173h-9.06c-3.037,0-5.5,2.462-5.5,5.5v14.978c-9.147,0.502-18.282,1.175-27.401,2.011l-14.187-24.367
		c8.172-5.277,15.432-11.618,21.641-18.824l1.459,1.111c0.996,0.759,2.167,1.126,3.33,1.126c1.657,0,3.296-0.746,4.378-2.166
		c1.842-2.416,1.376-5.867-1.04-7.708l-1.415-1.078c5.328-7.783,9.557-16.348,12.553-25.501l1.821,0.481
		c0.472,0.125,0.944,0.184,1.41,0.184c2.435,0,4.661-1.63,5.313-4.095c0.776-2.937-0.975-5.947-3.911-6.723l-1.768-0.467
		c2.003-9.426,2.632-18.956,1.933-28.357l1.821-0.247c3.011-0.406,5.121-3.176,4.715-6.186c-0.406-3.011-3.186-5.122-6.186-4.715
		l-1.766,0.239c-1.736-9.27-4.802-18.316-9.156-26.907l1.635-0.952c2.624-1.53,3.512-4.897,1.982-7.521
		c-1.531-2.625-4.897-3.512-7.521-1.982l-1.58,0.92c-5.248-8.082-11.542-15.265-18.684-21.418l1.118-1.468
		c1.84-2.417,1.371-5.868-1.047-7.707c-2.418-1.839-5.868-1.371-7.707,1.047l-1.078,1.417c-7.789-5.332-16.361-9.564-25.523-12.56
		c0.458-2.767-1.255-5.48-4.022-6.211c-2.744-0.726-5.556,0.761-6.543,3.36c-9.436-2.009-18.975-2.64-28.386-1.941l-0.248-1.831
		c-0.409-3.01-3.177-5.12-6.19-4.709c-3.01,0.409-5.119,3.181-4.71,6.19l0.239,1.766c-9.27,1.735-18.316,4.801-26.906,9.154
		l-0.951-1.634c-1.526-2.627-4.895-3.515-7.52-1.989c-2.625,1.527-3.516,4.894-1.988,7.52l0.925,1.589
		c-8.16,5.305-15.309,11.63-21.385,18.705l-1.504-1.145c-2.417-1.839-5.868-1.371-7.707,1.047c-1.84,2.417-1.371,5.868,1.047,7.707
		l1.467,1.117c-5.396,7.896-9.605,16.484-12.556,25.473l-1.878-0.496c-2.937-0.773-5.945,0.979-6.72,3.917s0.979,5.946,3.917,6.72
		l1.816,0.479c-1.962,9.258-2.628,18.801-1.928,28.336l-1.884,0.255c-3.01,0.409-5.118,3.18-4.71,6.19
		c0.375,2.759,2.734,4.76,5.443,4.76c0.246,0,0.496-0.017,0.747-0.051l1.813-0.246c1.701,9.174,4.713,18.234,9.104,26.915
		l-1.63,0.949c-2.625,1.527-3.516,4.894-1.988,7.52c1.021,1.756,2.864,2.736,4.759,2.736c0.939,0,1.891-0.241,2.761-0.747
		l1.594-0.928c5.305,8.16,11.62,15.32,18.695,21.396l-1.136,1.492c-1.842,2.416-1.376,5.867,1.04,7.708
		c0.996,0.759,2.167,1.126,3.33,1.126c1.657,0,3.296-0.746,4.378-2.166l1.12-1.47c7.826,5.348,16.328,9.542,25.23,12.489
		l-8.325,31.536c-13.234,3.23-26.403,6.825-39.359,10.753c-2.907,0.881-4.549,3.952-3.668,6.859
		c0.883,2.907,3.956,4.549,6.859,3.668c10.865-3.294,21.884-6.344,32.964-9.143l-1.439,5.449c-0.774,2.937,0.979,5.946,3.915,6.721
		c0.471,0.124,0.942,0.184,1.407,0.184c2.437,0,4.663-1.632,5.314-4.098l2.963-11.224c5.442-1.277,10.89-2.494,16.336-3.64
		c16.296-3.442,32.983-6.371,49.597-8.705c9.306-1.305,18.643-2.421,27.999-3.368l9.608,16.502c1.021,1.755,2.864,2.734,4.758,2.734
		c0.939,0,1.893-0.241,2.763-0.748c2.625-1.528,3.514-4.895,1.985-7.52l-7.042-12.096c39.572-3.351,79.454-3.518,119.027-0.475
		c53.206,4.091,106.014,13.992,156.955,29.429c0.531,0.161,1.068,0.238,1.597,0.238c2.359,0,4.542-1.531,5.262-3.906
		C465.664,391.296,464.021,388.225,461.114,387.344z M156.106,324.541l-28.777-49.426c0.531-0.422,1.045-0.862,1.546-1.314
		l45.626,34.744C169.179,314.63,163.019,320.02,156.106,324.541z M88.268,260.484c-6.006-10.312-2.502-23.588,7.81-29.594
		c3.418-1.99,7.159-2.936,10.855-2.936c7.456,0,14.724,3.852,18.738,10.746c2.909,4.996,3.699,10.825,2.225,16.415
		c-1.476,5.589-5.039,10.27-10.034,13.179C107.549,274.3,94.273,270.797,88.268,260.484z M105.336,282.174l7.694,56.824
		c-1.971,0.13-3.941,0.197-5.909,0.197c-6.195-0.001-12.355-0.654-18.384-1.911l14.593-55.278
		C103.996,282.083,104.665,282.14,105.336,282.174z M116.26,280.871c0.478-0.142,0.956-0.286,1.43-0.451l28.866,49.579
		c-7.312,3.606-14.916,6.119-22.616,7.596L116.26,280.871z M181.223,299.837l-45.548-34.685c0.279-0.518,0.543-1.045,0.795-1.579
		l55.413,14.63C189.286,285.943,185.703,293.205,181.223,299.837z M194.759,267.585l-55.319-14.605
		c0.063-0.587,0.106-1.174,0.137-1.761l56.83-7.695C196.941,251.506,196.409,259.585,194.759,267.585z M195.002,232.615
		l-56.734,7.682c-0.167-0.56-0.352-1.115-0.55-1.667l49.524-28.846C190.879,217.091,193.48,224.758,195.002,232.615z
		 M181.769,200.241l-49.439,28.796c-0.372-0.459-0.756-0.904-1.149-1.338l34.741-45.636
		C171.943,187.329,177.279,193.417,181.769,200.241z M122.527,220.907c-0.517-0.279-1.043-0.541-1.573-0.792l14.63-55.432
		c7.739,2.596,15,6.178,21.631,10.658L122.527,220.907z M106.821,159.934c6.043,0,12.117,0.627,18.145,1.87l-14.606,55.342
		c-0.58-0.061-1.163-0.105-1.746-0.136l-7.709-56.878C102.872,160.001,104.845,159.934,106.821,159.934z M89.997,161.554
		l7.692,56.748c-0.564,0.167-1.125,0.352-1.683,0.551l-28.854-49.555C74.462,165.66,82.138,163.076,89.997,161.554z M57.619,174.787
		l28.792,49.449c-0.456,0.369-0.898,0.751-1.33,1.141l-45.625-34.733C44.658,184.676,50.732,179.324,57.619,174.787z
		 M32.754,199.367l45.533,34.663c-0.279,0.516-0.541,1.041-0.791,1.571l-55.41-14.62C24.645,213.372,28.219,206.091,32.754,199.367z
		 M19.221,231.601l55.302,14.592c-0.062,0.582-0.106,1.166-0.136,1.752l-56.818,7.701C17.034,247.556,17.604,239.466,19.221,231.601
		z M18.97,266.557l56.708-7.686c0.167,0.565,0.352,1.126,0.552,1.685l-49.548,28.85C23.015,282.022,20.462,274.338,18.97,266.557z
		 M32.17,298.938l49.453-28.795c0.371,0.458,0.747,0.912,1.139,1.346L48.03,317.1C42.06,311.897,36.707,305.825,32.17,298.938z
		 M56.754,323.8l34.67-45.528c0.441,0.238,0.882,0.476,1.333,0.693l-14.633,55.427C70.602,331.838,63.407,328.287,56.754,323.8z
		 M140.344,362.521c-16.863,2.369-33.801,5.342-50.338,8.834c-3.631,0.764-7.264,1.568-10.895,2.391l6.815-25.817
		c6.95,1.49,14.061,2.264,21.212,2.264c2.454,0,4.912-0.1,7.369-0.281l0.255,1.88c0.372,2.761,2.732,4.765,5.443,4.765
		c0.245,0,0.493-0.016,0.742-0.05c3.01-0.406,5.121-3.176,4.715-6.186l-0.246-1.819c9.093-1.687,18.072-4.656,26.682-8.983
		l11.707,20.107C155.969,360.473,148.146,361.428,140.344,362.521z M400.8,341.278h4.944c5.254,0,10.135-1.62,14.176-4.383v33.011
		c-10.992-2.907-19.12-12.935-19.12-24.828V341.278z M412.179,303.472c4.774,2.432,7.74,7.272,7.74,12.63
		c0,7.816-6.359,14.176-14.176,14.176H400.8v-32.605L412.179,303.472z M387.103,269.777c0.633,0.262,2.696,1.328,2.696,4.041v71.26
		c0,10.614,4.536,20.184,11.766,26.888c-8.7-1.868-17.437-3.572-26.202-5.13v-89.133l6.977-6.975
		C384.258,268.809,386.47,269.515,387.103,269.777z M249.927,271.065c1.129,1.4,2.332,2.753,3.622,4.043
		c3.204,3.204,6.785,5.923,10.665,8.124c-1.059,3.607-1.614,7.383-1.614,11.245c0,0.162,0.01,0.323,0.012,0.485h-0.012v60.54
		c-4.223-0.102-8.448-0.168-12.673-0.199V271.065z M273.599,321.903c0.217,0.228,0.428,0.46,0.651,0.684
		c3.993,3.993,8.689,7.021,13.804,8.992v24.983c-4.815-0.281-9.634-0.52-14.455-0.707V321.903z M282.029,314.809
		c-5.437-5.436-8.43-12.656-8.43-20.331s2.993-14.895,8.428-20.329l0.562-0.562c5.431-5.431,12.651-8.421,20.331-8.421
		s14.9,2.991,20.331,8.421l20.33,20.331l-20.892,20.892c-5.428,5.432-12.646,8.423-20.326,8.423S287.461,320.241,282.029,314.809z
		 M330.47,322.587l8.457-8.455v47.149c-4.806-0.612-9.618-1.18-14.436-1.699v-32.067
		C326.616,326.084,328.619,324.439,330.47,322.587z M349.927,303.133l14.437-14.434v76.261c-4.805-0.78-9.617-1.513-14.437-2.2
		V303.133z M262.057,211.599c15.164-15.163,39.837-15.164,55.001,0l54.426,54.426L351.36,286.14l-20.332-20.332
		c-7.508-7.508-17.49-11.643-28.108-11.643s-20.601,4.135-28.107,11.641l-0.563,0.562c-2.09,2.09-3.908,4.377-5.459,6.81
		c-2.695-1.622-5.197-3.581-7.465-5.848c-7.351-7.351-11.399-17.117-11.399-27.5c0-10.38,4.05-20.151,11.374-27.484L262.057,211.599
		z M236.3,80.807c6.064,0,10.999,4.934,10.999,10.999s-4.935,10.999-10.999,10.999s-10.999-4.934-10.999-10.999
		S230.235,80.807,236.3,80.807z M199.663,126.223c-3.423,0-6.208-2.785-6.208-6.209c0-3.423,2.785-6.208,6.208-6.208h73.273
		c3.423,0,6.208,2.785,6.208,6.208c0,3.424-2.785,6.209-6.208,6.209H199.663z M228.796,137.223H243.8v14.716h-15.004V137.223z
		 M228.796,162.939H243.8v55.348c-3.034,6.326-4.694,13.268-4.847,20.458l-0.026,97.194h-10.131V162.939z M214.236,346.939h24.69
		v8.368c-8.233,0.06-16.464,0.259-24.69,0.59V346.939z M299.054,357.282v-23.195c1.095,0.09,2.197,0.145,3.309,0.145
		c3.822,0,7.557-0.544,11.128-1.58v25.821c-3.891-0.361-7.783-0.7-11.679-0.999C300.894,357.405,299.973,357.349,299.054,357.282z"
		/>
	<path d="M121.461,253.417c1.021-3.871,0.475-7.908-1.541-11.367c-2.014-3.459-5.255-5.926-9.125-6.948
		c-3.872-1.022-7.907-0.474-11.366,1.54c-3.46,2.014-5.928,5.256-6.949,9.127c-1.021,3.871-0.475,7.907,1.54,11.366
		c2.781,4.775,7.813,7.442,12.977,7.442c2.559,0,5.15-0.655,7.517-2.033C117.972,260.529,120.439,257.288,121.461,253.417z
		 M110.825,250.61c-0.271,1.03-0.928,1.892-1.848,2.427c-1.901,1.106-4.347,0.46-5.452-1.438c-0.536-0.92-0.682-1.994-0.41-3.024
		c0.271-1.03,0.929-1.892,1.849-2.428c0.618-0.359,1.304-0.543,2-0.543c0.341,0,0.685,0.044,1.023,0.134
		c1.03,0.272,1.892,0.928,2.428,1.848c0,0,0,0,0.001,0.001C110.951,248.507,111.097,249.581,110.825,250.61z"/>
	<path d="M268.099,261.198c3.037,0,5.5-2.462,5.5-5.5v-28.735c0-3.038-2.463-5.5-5.5-5.5s-5.5,2.462-5.5,5.5v28.735
		C262.599,258.735,265.062,261.198,268.099,261.198z"/>
	<path d="M293.554,276.751c-3.037,0-5.5,2.462-5.5,5.5v24.78c0,3.038,2.463,5.5,5.5,5.5s5.5-2.462,5.5-5.5v-24.78
		C299.054,279.214,296.592,276.751,293.554,276.751z"/>
	<path d="M293.554,249.478c3.037,0,5.5-2.462,5.5-5.5v-29.947c0-3.038-2.463-5.5-5.5-5.5s-5.5,2.462-5.5,5.5v29.947
		C288.054,247.016,290.517,249.478,293.554,249.478z"/>
	<path d="M318.991,306.864c3.037,0,5.5-2.462,5.5-5.5v-14.06c0-3.038-2.463-5.5-5.5-5.5s-5.5,2.462-5.5,5.5v14.06
		C313.491,304.402,315.954,306.864,318.991,306.864z"/>
	<path d="M318.991,250.198c3.037,0,5.5-2.462,5.5-5.5v-13.393c0-3.038-2.463-5.5-5.5-5.5s-5.5,2.462-5.5,5.5v13.393
		C313.491,247.735,315.954,250.198,318.991,250.198z"/>
	<path d="M344.427,268.697c3.037,0,5.5-2.462,5.5-5.5v-6.833c0-3.038-2.463-5.5-5.5-5.5s-5.5,2.462-5.5,5.5v6.833
		C338.927,266.235,341.389,268.697,344.427,268.697z"/>
	<path d="M62.299,101.794c0.187,2.894,2.589,5.145,5.488,5.145h88.058c2.549,0,4.765-1.751,5.352-4.232
		c0.459-1.936,0.691-3.876,0.691-5.768c0-13.785-11.215-25-25-25c-3.533,0-6.959,0.733-10.125,2.148
		c-5.455-6.361-13.489-10.148-22.026-10.148c-10.78,0-20.719,6.123-25.678,15.532c-9.668,2.145-16.822,10.771-16.822,20.968
		c0,0.396,0.022,0.784,0.05,1.173L62.299,101.794z M83.125,89.977c2.155-0.124,4.039-1.497,4.816-3.512
		c2.659-6.894,9.408-11.526,16.795-11.526c6.466,0,12.469,3.502,15.666,9.141c0.78,1.376,2.116,2.35,3.665,2.672
		c1.548,0.322,3.162-0.039,4.427-0.99c2.453-1.846,5.355-2.822,8.394-2.822c7.383,0,13.45,5.746,13.965,13h-76.6
		C75.853,92.588,79.185,90.203,83.125,89.977z"/>
	<path d="M308.308,150.775c0.178,2.902,2.583,5.165,5.49,5.165h110.073c2.55,0,4.766-1.753,5.353-4.234
		c0.548-2.319,0.826-4.637,0.826-6.891c0-11.975-7.086-22.321-17.282-27.082c0.112-1.027,0.187-2.06,0.187-3.103
		c0-15.715-12.785-28.5-28.5-28.5c-12.215,0-22.852,7.717-26.829,18.895c-12.255,0.847-23.308,8.227-28.816,19.167
		c-11.781,2.305-20.574,12.687-20.574,24.998c0,0.447,0.025,0.885,0.056,1.324L308.308,150.775z M384.456,97.129
		c9.649,0,17.5,7.851,17.5,17.5c0,0.123-0.011,0.244-0.013,0.366c-0.585-0.034-1.173-0.057-1.767-0.057
		c-4.572,0-8.994,1.028-13.034,3.005c-4.627-5.734-10.953-9.837-18.002-11.764C372.14,100.725,377.926,97.129,384.456,97.129z
		 M332.892,134.739c2.155-0.124,4.039-1.497,4.816-3.511c3.527-9.145,12.48-15.288,22.277-15.288
		c8.576,0,16.538,4.645,20.778,12.122c0.78,1.376,2.116,2.35,3.665,2.672c1.548,0.322,3.162-0.039,4.427-0.99
		c3.306-2.489,7.22-3.804,11.319-3.804c10.408,0,18.875,8.467,18.875,18.875c0,0.042,0,0.083,0,0.125h-99.178
		C321.609,139.3,326.711,135.094,332.892,134.739z"/>
</g>
<g>
</g>
<g>
</g>
<g>
</g>
<g>
</g>
<g>
</g>
<g>
</g>
<g>
</g>
<g>
</g>
<g>
</g>
<g>
</g>
<g>
</g>
<g>
</g>
<g>
</g>
<g>
</g>
<g>
</g>
</svg>
