<?xml version="1.0" encoding="iso-8859-1"?>
<!-- Generator: Adobe Illustrator 19.0.0, SVG Export Plug-In . SVG Version: 6.00 Build 0)  -->
<svg version="1.1" id="Layer_1" xmlns="http://www.w3.org/2000/svg" xmlns:xlink="http://www.w3.org/1999/xlink" x="0px" y="0px"
	 viewBox="0 0 512 512" style="enable-background:new 0 0 512 512;" xml:space="preserve">
<g>
	<path style="fill:#FFD37D;" d="M145.682,49.954C60.177,65.976,8.824,110.097,12.445,179.959c0,0,13.024,119.44,20.142,193.086
		c5.216,53.971,46.937,90.935,98.708,90.935s98.74-42.293,98.708-90.935s-0.126-193.086-0.126-193.086
		C229.878,111.519,227.009,34.714,145.682,49.954z"/>
	<path style="fill:#FFD37D;" d="M366.318,49.954c85.505,16.022,136.858,60.144,133.238,130.005c0,0-13.024,119.44-20.142,193.086
		c-5.216,53.971-46.937,90.935-98.708,90.935s-98.74-42.293-98.708-90.935c0.032-48.642,0.126-193.086,0.126-193.086
		C282.122,111.519,284.991,34.714,366.318,49.954z"/>
</g>
<g>
	<path style="fill:#000030;" d="M209.328,50.342c-16.166-13.417-38.339-17.6-65.903-12.438
		C97.576,46.496,61.847,62.626,37.228,85.848C10.698,110.874-1.76,142.751,0.2,180.592c0.012,0.232,0.031,0.463,0.056,0.694
		c0.13,1.194,13.097,120.207,20.126,192.937c2.798,28.953,15.528,55.089,35.844,73.591c20.126,18.33,46.786,28.425,75.069,28.425
		c27.817,0,55.903-11.095,77.055-30.439c21.57-19.727,33.931-46.249,33.914-72.765l-0.126-193.079
		C242.138,126.004,239.629,75.492,209.328,50.342z M191.802,427.706c-16.687,15.261-38.741,24.013-60.507,24.013
		c-46.389,0-81.962-32.837-86.505-79.854c-6.851-70.898-19.325-185.601-20.118-192.88C20.703,98.059,100.17,70.958,147.939,62.006
		c20.339-3.809,35.294-1.455,45.726,7.204c23.951,19.879,23.951,74.564,23.951,110.757l0.126,193.086
		C217.756,392.696,208.301,412.617,191.802,427.706z"/>
	<path style="fill:#000030;" d="M146.303,136.065v-35.502c0-6.77-5.489-12.261-12.261-12.261s-12.261,5.49-12.261,12.261v34.912
		c-18.298,11.888-65.28,51.823-65.28,148.465c0,6.77,5.489,12.261,12.261,12.261s12.261-5.49,12.261-12.261
		c0-41.985,10.106-77.841,29.225-103.693c8.772-11.862,17.632-19.161,23.203-23.046c4.191,3.625,10.392,10.073,16.562,20.447
		c10.176,17.108,22.307,48.57,22.307,101.288c0,6.77,5.489,12.261,12.261,12.261s12.261-5.49,12.261-12.261
		C196.842,185.314,161.424,147.811,146.303,136.065z"/>
	<path style="fill:#000030;" d="M474.772,85.848c-24.619-23.223-60.348-39.354-106.196-47.945
		c-27.565-5.168-49.737-0.982-65.903,12.438c-30.301,25.151-32.81,75.663-32.81,129.609l-0.126,193.086
		c-0.017,26.516,12.344,53.038,33.914,72.765c21.152,19.345,49.238,30.439,77.055,30.439c28.283,0,54.943-10.094,75.069-28.425
		c20.316-18.504,33.046-44.638,35.844-73.591c7.029-72.727,19.996-191.744,20.126-192.937c0.026-0.232,0.044-0.462,0.056-0.694
		C513.761,142.752,501.303,110.876,474.772,85.848z M487.328,178.984c-0.792,7.28-13.266,121.982-20.118,192.88
		c-4.544,47.017-40.115,79.854-86.505,79.854c-21.766,0-43.819-8.753-60.507-24.013c-16.499-15.089-25.954-35.01-25.942-54.653
		l0.126-193.095c0-36.186,0-90.869,23.951-110.748c7.22-5.994,16.606-8.966,28.444-8.966c5.266,0,11.021,0.589,17.281,1.763
		C411.83,70.957,491.297,98.057,487.328,178.984z"/>
	<path style="fill:#000030;" d="M390.219,135.475v-34.912c0-6.77-5.489-12.261-12.261-12.261c-6.772,0-12.261,5.49-12.261,12.261
		v35.849c-14.561,12.196-50.539,51.541-50.539,142.524c0,6.77,5.489,12.261,12.261,12.261c6.772,0,12.261-5.49,12.261-12.261
		c0-50.776,12.257-82.403,22.537-99.993c6.209-10.62,12.455-17.52,16.729-21.523c14.98,10.495,52.03,44.728,52.03,126.52
		c0,6.77,5.489,12.261,12.261,12.261c6.771,0,12.261-5.49,12.261-12.261C455.499,187.298,408.516,147.363,390.219,135.475z"/>
</g>
<g>
</g>
<g>
</g>
<g>
</g>
<g>
</g>
<g>
</g>
<g>
</g>
<g>
</g>
<g>
</g>
<g>
</g>
<g>
</g>
<g>
</g>
<g>
</g>
<g>
</g>
<g>
</g>
<g>
</g>
</svg>
